Courier Prime Source Italic.ufo
<glyph name="P" format="1">
  <advance width="1228"/>
  <unicode hex="0050"/>
  <outline>
    <contour>
      <point x="435" y="1187" type="line" smooth="yes"/>
      <point x="390" y="1187"/>
      <point x="371" y="1169"/>
      <point x="362" y="1119" type="curve" smooth="yes"/>
      <point x="174" y="55" type="line" smooth="yes"/>
      <point x="166" y="9"/>
      <point x="181" y="-10"/>
      <point x="237" y="-10" type="curve" smooth="yes"/>
      <point x="239" y="-10" type="line" smooth="yes"/>
      <point x="292" y="-10"/>
      <point x="316" y="9"/>
      <point x="324" y="55" type="curve" smooth="yes"/>
      <point x="384" y="393" type="line"/>
      <point x="681" y="393" type="line" smooth="yes"/>
      <point x="1045" y="393"/>
      <point x="1187" y="637"/>
      <point x="1187" y="859" type="curve" smooth="yes"/>
      <point x="1187" y="1054"/>
      <point x="1050" y="1187"/>
      <point x="800" y="1187" type="curve" smooth="yes"/>
    </contour>
    <contour>
      <point x="946" y="1043"/>
      <point x="1033" y="972"/>
      <point x="1033" y="844" type="curve" smooth="yes"/>
      <point x="1033" y="694"/>
      <point x="940" y="537"/>
      <point x="680" y="537" type="curve" smooth="yes"/>
      <point x="409" y="537" type="line"/>
      <point x="498" y="1043" type="line"/>
      <point x="767" y="1043" type="line" smooth="yes"/>
    </contour>
  </outline>
</glyph>
<glyph name="Z" format="1">
  <advance width="1228"/>
  <unicode hex="005A"/>
  <outline>
    <contour>
      <point x="936" y="0" type="line" smooth="yes"/>
      <point x="981" y="0"/>
      <point x="1002" y="20"/>
      <point x="1011" y="72" type="curve" smooth="yes"/>
      <point x="1020" y="124"/>
      <point x="1006" y="144"/>
      <point x="961" y="144" type="curve" smooth="yes"/>
      <point x="359" y="144" type="line"/>
      <point x="1141" y="1080" type="line" smooth="yes"/>
      <point x="1149" y="1090"/>
      <point x="1155" y="1103"/>
      <point x="1158" y="1119" type="curve" smooth="yes"/>
      <point x="1167" y="1169"/>
      <point x="1150" y="1187"/>
      <point x="1105" y="1187" type="curve" smooth="yes"/>
      <point x="385" y="1187" type="line" smooth="yes"/>
      <point x="340" y="1187"/>
      <point x="318" y="1167"/>
      <point x="309" y="1115" type="curve" smooth="yes"/>
      <point x="300" y="1063"/>
      <point x="314" y="1043"/>
      <point x="359" y="1043" type="curve" smooth="yes"/>
      <point x="917" y="1043" type="line"/>
      <point x="140" y="111" type="line" smooth="yes"/>
      <point x="130" y="99"/>
      <point x="121" y="85"/>
      <point x="118" y="68" type="curve" smooth="yes"/>
      <point x="109" y="18"/>
      <point x="125" y="0"/>
      <point x="170" y="0" type="curve" smooth="yes"/>
    </contour>
  </outline>
</glyph>
<glyph name="backslash" format="1">
  <advance width="1228"/>
  <unicode hex="005C"/>
  <outline>
    <contour>
      <point x="411" y="1394"/>
      <point x="362" y="1369"/>
      <point x="371" y="1330" type="curve" smooth="yes"/>
      <point x="759" y="-325" type="line" smooth="yes"/>
      <point x="764" y="-346"/>
      <point x="788" y="-355"/>
      <point x="814" y="-355" type="curve" smooth="yes"/>
      <point x="858" y="-355"/>
      <point x="908" y="-330"/>
      <point x="899" y="-291" type="curve" smooth="yes"/>
      <point x="511" y="1364" type="line" smooth="yes"/>
      <point x="506" y="1385"/>
      <point x="481" y="1394"/>
      <point x="455" y="1394" type="curve" smooth="yes"/>
    </contour>
  </outline>
</glyph>
<glyph name="f" format="1">
  <advance width="1228"/>
  <unicode hex="0066"/>
  <outline>
    <contour>
      <point x="729" y="1317"/>
      <point x="588" y="1186"/>
      <point x="549" y="967" type="curve" smooth="yes"/>
      <point x="320" y="-333" type="line" smooth="yes"/>
      <point x="312" y="-379"/>
      <point x="327" y="-398"/>
      <point x="383" y="-398" type="curve" smooth="yes"/>
      <point x="385" y="-398" type="line" smooth="yes"/>
      <point x="438" y="-398"/>
      <point x="462" y="-379"/>
      <point x="470" y="-333" type="curve" smooth="yes"/>
      <point x="697" y="954" type="line" smooth="yes"/>
      <point x="721" y="1091"/>
      <point x="796" y="1171"/>
      <point x="937" y="1171" type="curve" smooth="yes"/>
      <point x="1016" y="1171"/>
      <point x="1093" y="1153"/>
      <point x="1165" y="1124" type="curve" smooth="yes"/>
      <point x="1197" y="1111"/>
      <point x="1228" y="1119"/>
      <point x="1247" y="1174" type="curve" smooth="yes"/>
      <point x="1265" y="1225"/>
      <point x="1243" y="1252"/>
      <point x="1210" y="1266" type="curve" smooth="yes"/>
      <point x="1135" y="1297"/>
      <point x="1047" y="1317"/>
      <point x="953" y="1317" type="curve" smooth="yes"/>
    </contour>
    <contour>
      <point x="329" y="844" type="line" smooth="yes"/>
      <point x="284" y="844"/>
      <point x="263" y="824"/>
      <point x="254" y="772" type="curve" smooth="yes"/>
      <point x="244" y="720"/>
      <point x="259" y="700"/>
      <point x="304" y="700" type="curve" smooth="yes"/>
      <point x="998" y="700" type="line" smooth="yes"/>
      <point x="1043" y="700"/>
      <point x="1064" y="720"/>
      <point x="1074" y="772" type="curve" smooth="yes"/>
      <point x="1083" y="824"/>
      <point x="1068" y="844"/>
      <point x="1023" y="844" type="curve" smooth="yes"/>
    </contour>
  </outline>
</glyph>
<glyph name="l" format="1">
  <advance width="1228"/>
  <unicode hex="006C"/>
  <outline>
    <contour>
      <point x="351" y="1312" type="line" smooth="yes"/>
      <point x="306" y="1312"/>
      <point x="284" y="1292"/>
      <point x="275" y="1240" type="curve" smooth="yes"/>
      <point x="266" y="1188"/>
      <point x="280" y="1168"/>
      <point x="325" y="1168" type="curve" smooth="yes"/>
      <point x="598" y="1168" type="line"/>
      <point x="447" y="307" type="line" smooth="yes"/>
      <point x="442" y="280"/>
      <point x="440" y="253"/>
      <point x="440" y="229" type="curve" smooth="yes"/>
      <point x="440" y="73"/>
      <point x="536" y="-22"/>
      <point x="709" y="-22" type="curve" smooth="yes"/>
      <point x="799" y="-22"/>
      <point x="890" y="-7"/>
      <point x="970" y="15" type="curve" smooth="yes"/>
      <point x="1013" y="27"/>
      <point x="1027" y="55"/>
      <point x="1017" y="105" type="curve" smooth="yes"/>
      <point x="1007" y="153"/>
      <point x="981" y="170"/>
      <point x="942" y="158" type="curve" smooth="yes"/>
      <point x="873" y="137"/>
      <point x="795" y="124"/>
      <point x="724" y="124" type="curve" smooth="yes"/>
      <point x="632" y="124"/>
      <point x="590" y="160"/>
      <point x="590" y="243" type="curve" smooth="yes"/>
      <point x="590" y="263"/>
      <point x="593" y="285"/>
      <point x="597" y="310" type="curve" smooth="yes"/>
      <point x="762" y="1244" type="line" smooth="yes"/>
      <point x="771" y="1294"/>
      <point x="754" y="1312"/>
      <point x="709" y="1312" type="curve" smooth="yes"/>
    </contour>
  </outline>
</glyph>
<glyph name="u" format="1">
  <advance width="1228"/>
  <unicode hex="0075"/>
  <outline>
    <contour>
      <point x="1044" y="934" type="line" smooth="yes"/>
      <point x="991" y="934"/>
      <point x="967" y="915"/>
      <point x="959" y="869" type="curve" smooth="yes"/>
      <point x="899" y="532" type="line" smooth="yes"/>
      <point x="859" y="304"/>
      <point x="639" y="126"/>
      <point x="468" y="126" type="curve" smooth="yes"/>
      <point x="363" y="126"/>
      <point x="315" y="180"/>
      <point x="315" y="265" type="curve" smooth="yes"/>
      <point x="315" y="282"/>
      <point x="317" y="300"/>
      <point x="320" y="319" type="curve" smooth="yes"/>
      <point x="417" y="869" type="line" smooth="yes"/>
      <point x="425" y="915"/>
      <point x="410" y="934"/>
      <point x="354" y="934" type="curve" smooth="yes"/>
      <point x="352" y="934" type="line" smooth="yes"/>
      <point x="299" y="934"/>
      <point x="275" y="915"/>
      <point x="267" y="869" type="curve" smooth="yes"/>
      <point x="169" y="314" type="line" smooth="yes"/>
      <point x="164" y="287"/>
      <point x="162" y="262"/>
      <point x="162" y="238" type="curve" smooth="yes"/>
      <point x="162" y="80"/>
      <point x="265" y="-22"/>
      <point x="437" y="-22" type="curve" smooth="yes"/>
      <point x="583" y="-22"/>
      <point x="743" y="74"/>
      <point x="852" y="208" type="curve"/>
      <point x="825" y="55" type="line" smooth="yes"/>
      <point x="817" y="9"/>
      <point x="832" y="-10"/>
      <point x="885" y="-10" type="curve" smooth="yes"/>
      <point x="887" y="-10" type="line" smooth="yes"/>
      <point x="940" y="-10"/>
      <point x="957" y="9"/>
      <point x="965" y="55" type="curve" smooth="yes"/>
      <point x="1109" y="869" type="line" smooth="yes"/>
      <point x="1117" y="915"/>
      <point x="1102" y="934"/>
      <point x="1046" y="934" type="curve" smooth="yes"/>
    </contour>
  </outline>
</glyph>
<glyph name="w" format="1">
  <advance width="1228"/>
  <unicode hex="0077"/>
  <outline>
    <contour>
      <point x="1150" y="942"/>
      <point x="1126" y="930"/>
      <point x="1107" y="883" type="curve" smooth="yes"/>
      <point x="830" y="210" type="line"/>
      <point x="749" y="743" type="line" smooth="yes"/>
      <point x="745" y="769"/>
      <point x="725" y="790"/>
      <point x="678" y="790" type="curve" smooth="yes"/>
      <point x="628" y="790"/>
      <point x="604" y="769"/>
      <point x="591" y="743" type="curve" smooth="yes"/>
      <point x="322" y="210" type="line"/>
      <point x="282" y="873" type="line" smooth="yes"/>
      <point x="279" y="920"/>
      <point x="265" y="933"/>
      <point x="207" y="930" type="curve" smooth="yes"/>
      <point x="151" y="927"/>
      <point x="137" y="908"/>
      <point x="140" y="864" type="curve" smooth="yes"/>
      <point x="198" y="43" type="line" smooth="yes"/>
      <point x="201" y="-4"/>
      <point x="222" y="-22"/>
      <point x="273" y="-22" type="curve" smooth="yes"/>
      <point x="330" y="-22"/>
      <point x="359" y="-3"/>
      <point x="382" y="43" type="curve" smooth="yes"/>
      <point x="641" y="555" type="line"/>
      <point x="720" y="43" type="line" smooth="yes"/>
      <point x="727" y="-3"/>
      <point x="754" y="-22"/>
      <point x="811" y="-22" type="curve" smooth="yes"/>
      <point x="862" y="-22"/>
      <point x="884" y="-4"/>
      <point x="904" y="43" type="curve" smooth="yes"/>
      <point x="1242" y="842" type="line" smooth="yes"/>
      <point x="1262" y="889"/>
      <point x="1258" y="913"/>
      <point x="1202" y="928" type="curve" smooth="yes"/>
    </contour>
  </outline>
</glyph>
<glyph name="z" format="1">
  <advance width="1228"/>
  <unicode hex="007A"/>
  <outline>
    <contour>
      <point x="927" y="0" type="line" smooth="yes"/>
      <point x="972" y="0"/>
      <point x="993" y="20"/>
      <point x="1002" y="72" type="curve" smooth="yes"/>
      <point x="1011" y="124"/>
      <point x="997" y="144"/>
      <point x="952" y="144" type="curve" smooth="yes"/>
      <point x="395" y="144" type="line"/>
      <point x="1087" y="810" type="line" smooth="yes"/>
      <point x="1098" y="820"/>
      <point x="1107" y="835"/>
      <point x="1110" y="856" type="curve" smooth="yes"/>
      <point x="1117" y="906"/>
      <point x="1104" y="924"/>
      <point x="1059" y="924" type="curve" smooth="yes"/>
      <point x="343" y="924" type="line" smooth="yes"/>
      <point x="298" y="924"/>
      <point x="277" y="904"/>
      <point x="268" y="852" type="curve" smooth="yes"/>
      <point x="259" y="800"/>
      <point x="273" y="780"/>
      <point x="318" y="780" type="curve" smooth="yes"/>
      <point x="845" y="780" type="line"/>
      <point x="151" y="113" type="line" smooth="yes"/>
      <point x="139" y="102"/>
      <point x="132" y="87"/>
      <point x="129" y="68" type="curve" smooth="yes"/>
      <point x="121" y="18"/>
      <point x="136" y="0"/>
      <point x="181" y="0" type="curve" smooth="yes"/>
    </contour>
  </outline>
</glyph>
<glyph name="Eth" format="1">
  <advance width="1228"/>
  <unicode hex="00D0"/>
  <outline>
    <contour>
      <point x="163" y="684" type="line" smooth="yes"/>
      <point x="118" y="684"/>
      <point x="96" y="664"/>
      <point x="87" y="612" type="curve" smooth="yes"/>
      <point x="78" y="560"/>
      <point x="92" y="540"/>
      <point x="137" y="540" type="curve" smooth="yes"/>
      <point x="619" y="540" type="line" smooth="yes"/>
      <point x="664" y="540"/>
      <point x="686" y="560"/>
      <point x="695" y="612" type="curve" smooth="yes"/>
      <point x="704" y="664"/>
      <point x="690" y="684"/>
      <point x="645" y="684" type="curve" smooth="yes"/>
    </contour>
    <contour>
      <point x="425" y="1187" type="line" smooth="yes"/>
      <point x="380" y="1187"/>
      <point x="361" y="1169"/>
      <point x="352" y="1119" type="curve" smooth="yes"/>
      <point x="166" y="68" type="line" smooth="yes"/>
      <point x="157" y="18"/>
      <point x="175" y="0"/>
      <point x="220" y="0" type="curve" smooth="yes"/>
      <point x="522" y="0" type="line" smooth="yes"/>
      <point x="731" y="0"/>
      <point x="878" y="90"/>
      <point x="976" y="213" type="curve" smooth="yes"/>
      <point x="1098" y="366"/>
      <point x="1146" y="571"/>
      <point x="1146" y="724" type="curve" smooth="yes"/>
      <point x="1146" y="1011"/>
      <point x="974" y="1187"/>
      <point x="701" y="1187" type="curve" smooth="yes"/>
    </contour>
    <contour>
      <point x="869" y="1043"/>
      <point x="993" y="936"/>
      <point x="993" y="719" type="curve" smooth="yes"/>
      <point x="993" y="592"/>
      <point x="956" y="432"/>
      <point x="864" y="313" type="curve" smooth="yes"/>
      <point x="788" y="214"/>
      <point x="673" y="144"/>
      <point x="510" y="144" type="curve" smooth="yes"/>
      <point x="330" y="144" type="line"/>
      <point x="488" y="1043" type="line"/>
      <point x="668" y="1043" type="line" smooth="yes"/>
    </contour>
  </outline>
</glyph>
<glyph name="Oslash" format="1">
  <advance width="1228"/>
  <unicode hex="00D8"/>
  <outline>
    <contour>
      <point x="1169" y="1260"/>
      <point x="1132" y="1257"/>
      <point x="1099" y="1219" type="curve" smooth="yes"/>
      <point x="1015" y="1123" type="line"/>
      <point x="944" y="1178"/>
      <point x="851" y="1209"/>
      <point x="742" y="1209" type="curve" smooth="yes"/>
      <point x="534" y="1209"/>
      <point x="375" y="1108"/>
      <point x="269" y="961" type="curve" smooth="yes"/>
      <point x="166" y="818"/>
      <point x="114" y="636"/>
      <point x="114" y="459" type="curve" smooth="yes"/>
      <point x="114" y="346"/>
      <point x="140" y="248"/>
      <point x="187" y="171" type="curve"/>
      <point x="82" y="50" type="line" smooth="yes"/>
      <point x="49" y="12"/>
      <point x="58" y="-15"/>
      <point x="94" y="-43" type="curve" smooth="yes"/>
      <point x="129" y="-71"/>
      <point x="164" y="-68"/>
      <point x="197" y="-30" type="curve" smooth="yes"/>
      <point x="280" y="65" type="line"/>
      <point x="352" y="9"/>
      <point x="445" y="-22"/>
      <point x="555" y="-22" type="curve" smooth="yes"/>
      <point x="763" y="-22"/>
      <point x="922" y="79"/>
      <point x="1028" y="226" type="curve" smooth="yes"/>
      <point x="1131" y="369"/>
      <point x="1183" y="551"/>
      <point x="1183" y="728" type="curve" smooth="yes"/>
      <point x="1183" y="842"/>
      <point x="1157" y="940"/>
      <point x="1109" y="1018" type="curve"/>
      <point x="1214" y="1139" type="line" smooth="yes"/>
      <point x="1247" y="1177"/>
      <point x="1239" y="1204"/>
      <point x="1204" y="1232" type="curve" smooth="yes"/>
    </contour>
    <contour>
      <point x="1019" y="844"/>
      <point x="1030" y="787"/>
      <point x="1030" y="722" type="curve" smooth="yes"/>
      <point x="1030" y="580"/>
      <point x="986" y="426"/>
      <point x="902" y="309" type="curve" smooth="yes"/>
      <point x="825" y="201"/>
      <point x="711" y="126"/>
      <point x="566" y="126" type="curve" smooth="yes"/>
      <point x="492" y="126"/>
      <point x="430" y="146"/>
      <point x="382" y="183" type="curve"/>
      <point x="999" y="892" type="line"/>
    </contour>
    <contour>
      <point x="804" y="1061"/>
      <point x="865" y="1042"/>
      <point x="913" y="1005" type="curve"/>
      <point x="297" y="297" type="line"/>
      <point x="277" y="345"/>
      <point x="267" y="401"/>
      <point x="267" y="465" type="curve"/>
      <point x="267" y="607"/>
      <point x="311" y="761"/>
      <point x="395" y="878" type="curve" smooth="yes"/>
      <point x="472" y="986"/>
      <point x="586" y="1061"/>
      <point x="731" y="1061" type="curve" smooth="yes"/>
    </contour>
  </outline>
</glyph>
<glyph name="Thorn" format="1">
  <advance width="1228"/>
  <unicode hex="00DE"/>
  <outline>
    <contour>
      <point x="411" y="946" type="line"/>
      <point x="387" y="802" type="line"/>
      <point x="745" y="802" type="line" smooth="yes"/>
      <point x="881" y="802"/>
      <point x="940" y="735"/>
      <point x="940" y="641" type="curve" smooth="yes"/>
      <point x="940" y="534"/>
      <point x="879" y="398"/>
      <point x="678" y="398" type="curve" smooth="yes"/>
      <point x="320" y="398" type="line"/>
      <point x="296" y="254" type="line"/>
      <point x="685" y="254" type="line" smooth="yes"/>
      <point x="999" y="254"/>
      <point x="1098" y="490"/>
      <point x="1098" y="654" type="curve" smooth="yes"/>
      <point x="1098" y="818"/>
      <point x="991" y="946"/>
      <point x="780" y="946" type="curve" smooth="yes"/>
    </contour>
    <contour>
      <point x="449" y="1197" type="line" smooth="yes"/>
      <point x="396" y="1197"/>
      <point x="372" y="1178"/>
      <point x="364" y="1132" type="curve" smooth="yes"/>
      <point x="174" y="55" type="line" smooth="yes"/>
      <point x="166" y="9"/>
      <point x="181" y="-10"/>
      <point x="237" y="-10" type="curve" smooth="yes"/>
      <point x="239" y="-10" type="line" smooth="yes"/>
      <point x="292" y="-10"/>
      <point x="316" y="9"/>
      <point x="324" y="55" type="curve" smooth="yes"/>
      <point x="514" y="1132" type="line" smooth="yes"/>
      <point x="522" y="1178"/>
      <point x="507" y="1197"/>
      <point x="451" y="1197" type="curve" smooth="yes"/>
    </contour>
  </outline>
</glyph>
<glyph name="dcaron" format="1">
  <advance width="1228"/>
  <unicode hex="010F"/>
  <outline>
    <contour>
      <point x="1012" y="1322" type="line" smooth="yes"/>
      <point x="959" y="1322"/>
      <point x="935" y="1303"/>
      <point x="927" y="1257" type="curve" smooth="yes"/>
      <point x="838" y="752" type="line"/>
      <point x="859" y="768" type="line"/>
      <point x="817" y="873"/>
      <point x="721" y="946"/>
      <point x="605" y="946" type="curve" smooth="yes"/>
      <point x="280" y="946"/>
      <point x="133" y="625"/>
      <point x="133" y="366" type="curve" smooth="yes"/>
      <point x="133" y="127"/>
      <point x="264" y="-22"/>
      <point x="455" y="-22" type="curve" smooth="yes"/>
      <point x="556" y="-22"/>
      <point x="654" y="24"/>
      <point x="735" y="113" type="curve"/>
      <point x="725" y="55" type="line" smooth="yes"/>
      <point x="717" y="9"/>
      <point x="732" y="-10"/>
      <point x="785" y="-10" type="curve" smooth="yes"/>
      <point x="787" y="-10" type="line" smooth="yes"/>
      <point x="840" y="-10"/>
      <point x="857" y="9"/>
      <point x="865" y="55" type="curve" smooth="yes"/>
      <point x="1077" y="1257" type="line" smooth="yes"/>
      <point x="1085" y="1303"/>
      <point x="1070" y="1322"/>
      <point x="1014" y="1322" type="curve" smooth="yes"/>
    </contour>
    <contour>
      <point x="717" y="798"/>
      <point x="794" y="705"/>
      <point x="794" y="541" type="curve" smooth="yes"/>
      <point x="794" y="335"/>
      <point x="682" y="126"/>
      <point x="481" y="126" type="curve" smooth="yes"/>
      <point x="354" y="126"/>
      <point x="286" y="226"/>
      <point x="286" y="375" type="curve" smooth="yes"/>
      <point x="286" y="581"/>
      <point x="398" y="798"/>
      <point x="599" y="798" type="curve" smooth="yes"/>
    </contour>
    <component base="caron.alt" xOffset="807"/>
  </outline>
</glyph>
<glyph name="eogonek" format="1">
  <advance width="1228"/>
  <unicode hex="0119"/>
  <outline>
    <contour>
      <point x="383" y="946"/>
      <point x="154" y="684"/>
      <point x="154" y="354" type="curve" smooth="yes"/>
      <point x="154" y="122"/>
      <point x="291" y="-22"/>
      <point x="543" y="-22" type="curve" smooth="yes"/>
      <point x="596" y="-22"/>
      <point x="649" y="-18"/>
      <point x="701" y="-10" type="curve"/>
      <point x="580" y="-107"/>
      <point x="512" y="-204"/>
      <point x="512" y="-310" type="curve" smooth="yes"/>
      <point x="512" y="-406"/>
      <point x="570" y="-472"/>
      <point x="677" y="-472" type="curve" smooth="yes"/>
      <point x="741" y="-472"/>
      <point x="806" y="-460"/>
      <point x="855" y="-443" type="curve" smooth="yes"/>
      <point x="886" y="-432"/>
      <point x="896" y="-411"/>
      <point x="891" y="-374" type="curve" smooth="yes"/>
      <point x="886" y="-337"/>
      <point x="871" y="-322"/>
      <point x="844" y="-326" type="curve" smooth="yes"/>
      <point x="808" y="-332"/>
      <point x="772" y="-336"/>
      <point x="733" y="-336" type="curve" smooth="yes"/>
      <point x="693" y="-336"/>
      <point x="668" y="-316"/>
      <point x="668" y="-277" type="curve" smooth="yes"/>
      <point x="668" y="-195"/>
      <point x="757" y="-84"/>
      <point x="996" y="86" type="curve" smooth="yes"/>
      <point x="1021" y="104"/>
      <point x="1026" y="129"/>
      <point x="1014" y="166" type="curve" smooth="yes"/>
      <point x="998" y="217"/>
      <point x="966" y="232"/>
      <point x="933" y="215" type="curve" smooth="yes"/>
      <point x="832" y="164"/>
      <point x="692" y="123"/>
      <point x="558" y="123" type="curve" smooth="yes"/>
      <point x="404" y="123"/>
      <point x="309" y="192"/>
      <point x="306" y="354" type="curve"/>
      <point x="857" y="411" type="line" smooth="yes"/>
      <point x="1019" y="428"/>
      <point x="1081" y="520"/>
      <point x="1081" y="655" type="curve" smooth="yes"/>
      <point x="1081" y="821"/>
      <point x="945" y="946"/>
      <point x="723" y="946" type="curve" smooth="yes"/>
    </contour>
    <contour>
      <point x="853" y="801"/>
      <point x="927" y="734"/>
      <point x="927" y="650" type="curve" smooth="yes"/>
      <point x="927" y="592"/>
      <point x="903" y="558"/>
      <point x="826" y="550" type="curve" smooth="yes"/>
      <point x="322" y="492" type="line"/>
      <point x="365" y="670"/>
      <point x="501" y="801"/>
      <point x="708" y="801" type="curve" smooth="yes"/>
    </contour>
  </outline>
</glyph>
<glyph name="dotlessi" format="1">
  <advance width="1228"/>
  <unicode hex="0131"/>
  <outline>
    <contour>
      <point x="322" y="924" type="line" smooth="yes"/>
      <point x="277" y="924"/>
      <point x="256" y="904"/>
      <point x="247" y="852" type="curve" smooth="yes"/>
      <point x="238" y="800"/>
      <point x="252" y="780"/>
      <point x="297" y="780" type="curve" smooth="yes"/>
      <point x="550" y="780" type="line"/>
      <point x="467" y="307" type="line" smooth="yes"/>
      <point x="462" y="280"/>
      <point x="460" y="254"/>
      <point x="460" y="229" type="curve" smooth="yes"/>
      <point x="460" y="73"/>
      <point x="556" y="-22"/>
      <point x="729" y="-22" type="curve" smooth="yes"/>
      <point x="819" y="-22"/>
      <point x="910" y="-7"/>
      <point x="990" y="15" type="curve" smooth="yes"/>
      <point x="1033" y="27"/>
      <point x="1047" y="55"/>
      <point x="1037" y="105" type="curve" smooth="yes"/>
      <point x="1027" y="153"/>
      <point x="1001" y="170"/>
      <point x="962" y="158" type="curve" smooth="yes"/>
      <point x="893" y="137"/>
      <point x="815" y="124"/>
      <point x="744" y="124" type="curve" smooth="yes"/>
      <point x="651" y="124"/>
      <point x="610" y="160"/>
      <point x="610" y="244" type="curve" smooth="yes"/>
      <point x="610" y="263"/>
      <point x="613" y="286"/>
      <point x="617" y="310" type="curve" smooth="yes"/>
      <point x="713" y="856" type="line" smooth="yes"/>
      <point x="722" y="906"/>
      <point x="705" y="924"/>
      <point x="660" y="924" type="curve" smooth="yes"/>
    </contour>
  </outline>
</glyph>
<glyph name="ij" format="1">
  <advance width="1228"/>
  <unicode hex="0133"/>
  <outline>
    <contour>
      <point x="1004" y="934" type="line" smooth="yes"/>
      <point x="951" y="934"/>
      <point x="927" y="915"/>
      <point x="919" y="869" type="curve" smooth="yes"/>
      <point x="758" y="-44" type="line" smooth="yes"/>
      <point x="732" y="-191"/>
      <point x="676" y="-264"/>
      <point x="542" y="-264" type="curve" smooth="yes"/>
      <point x="467" y="-264"/>
      <point x="383" y="-240"/>
      <point x="307" y="-199" type="curve" smooth="yes"/>
      <point x="278" y="-183"/>
      <point x="247" y="-189"/>
      <point x="223" y="-242" type="curve" smooth="yes"/>
      <point x="200" y="-293"/>
      <point x="212" y="-319"/>
      <point x="244" y="-337" type="curve" smooth="yes"/>
      <point x="327" y="-384"/>
      <point x="428" y="-410"/>
      <point x="526" y="-410" type="curve" smooth="yes"/>
      <point x="758" y="-410"/>
      <point x="866" y="-286"/>
      <point x="906" y="-57" type="curve" smooth="yes"/>
      <point x="1069" y="869" type="line" smooth="yes"/>
      <point x="1077" y="915"/>
      <point x="1062" y="934"/>
      <point x="1006" y="934" type="curve" smooth="yes"/>
    </contour>
    <contour>
      <point x="410" y="934" type="line" smooth="yes"/>
      <point x="357" y="934"/>
      <point x="333" y="915"/>
      <point x="325" y="869" type="curve" smooth="yes"/>
      <point x="181" y="55" type="line" smooth="yes"/>
      <point x="173" y="9"/>
      <point x="188" y="-10"/>
      <point x="244" y="-10" type="curve" smooth="yes"/>
      <point x="246" y="-10" type="line" smooth="yes"/>
      <point x="299" y="-10"/>
      <point x="323" y="9"/>
      <point x="331" y="55" type="curve" smooth="yes"/>
      <point x="475" y="869" type="line" smooth="yes"/>
      <point x="483" y="915"/>
      <point x="468" y="934"/>
      <point x="412" y="934" type="curve" smooth="yes"/>
    </contour>
    <contour>
      <point x="401" y="1363"/>
      <point x="378" y="1344"/>
      <point x="370" y="1298" type="curve" smooth="yes"/>
      <point x="347" y="1168" type="line" smooth="yes"/>
      <point x="339" y="1122"/>
      <point x="355" y="1103"/>
      <point x="431" y="1103" type="curve" smooth="yes"/>
      <point x="507" y="1103"/>
      <point x="529" y="1122"/>
      <point x="537" y="1168" type="curve" smooth="yes"/>
      <point x="560" y="1298" type="line" smooth="yes"/>
      <point x="568" y="1344"/>
      <point x="553" y="1363"/>
      <point x="477" y="1363" type="curve" smooth="yes"/>
    </contour>
    <contour>
      <point x="995" y="1363"/>
      <point x="972" y="1344"/>
      <point x="964" y="1298" type="curve" smooth="yes"/>
      <point x="941" y="1168" type="line" smooth="yes"/>
      <point x="933" y="1122"/>
      <point x="949" y="1103"/>
      <point x="1025" y="1103" type="curve" smooth="yes"/>
      <point x="1101" y="1103"/>
      <point x="1123" y="1122"/>
      <point x="1131" y="1168" type="curve" smooth="yes"/>
      <point x="1154" y="1298" type="line" smooth="yes"/>
      <point x="1162" y="1344"/>
      <point x="1147" y="1363"/>
      <point x="1071" y="1363" type="curve" smooth="yes"/>
    </contour>
  </outline>
</glyph>
<glyph name="emdash" format="1">
  <advance width="1228"/>
  <unicode hex="2014"/>
  <outline>
    <contour>
      <point x="78" y="654" type="line" smooth="yes"/>
      <point x="33" y="654"/>
      <point x="11" y="634"/>
      <point x="2" y="582" type="curve" smooth="yes"/>
      <point x="-7" y="530"/>
      <point x="7" y="510"/>
      <point x="52" y="510" type="curve" smooth="yes"/>
      <point x="1214" y="510" type="line" smooth="yes"/>
      <point x="1259" y="510"/>
      <point x="1281" y="530"/>
      <point x="1290" y="582" type="curve" smooth="yes"/>
      <point x="1299" y="634"/>
      <point x="1285" y="654"/>
      <point x="1240" y="654" type="curve" smooth="yes"/>
    </contour>
  </outline>
</glyph>
<glyph name="won" format="1">
  <advance width="1228"/>
  <unicode hex="20A9"/>
  <outline>
    <contour>
      <point x="98" y="754" type="line" smooth="yes"/>
      <point x="53" y="754"/>
      <point x="31" y="734"/>
      <point x="22" y="682" type="curve" smooth="yes"/>
      <point x="13" y="630"/>
      <point x="27" y="610"/>
      <point x="72" y="610" type="curve" smooth="yes"/>
      <point x="581" y="610" type="line"/>
      <point x="653" y="680" type="line"/>
      <point x="705" y="610" type="line"/>
      <point x="1234" y="610" type="line" smooth="yes"/>
      <point x="1279" y="610"/>
      <point x="1301" y="630"/>
      <point x="1310" y="682" type="curve" smooth="yes"/>
      <point x="1319" y="734"/>
      <point x="1305" y="754"/>
      <point x="1260" y="754" type="curve" smooth="yes"/>
    </contour>
    <component base="W"/>
  </outline>
</glyph>
<glyph name="notequal" format="1">
  <advance width="1228"/>
  <unicode hex="2260"/>
  <outline>
    <contour>
      <point x="994" y="1107"/>
      <point x="959" y="1098"/>
      <point x="928" y="1058" type="curve" smooth="yes"/>
      <point x="251" y="175" type="line" smooth="yes"/>
      <point x="221" y="136"/>
      <point x="230" y="113"/>
      <point x="265" y="85" type="curve" smooth="yes"/>
      <point x="299" y="57"/>
      <point x="333" y="66"/>
      <point x="364" y="106" type="curve" smooth="yes"/>
      <point x="1040" y="987" type="line" smooth="yes"/>
      <point x="1071" y="1028"/>
      <point x="1063" y="1051"/>
      <point x="1028" y="1079" type="curve" smooth="yes"/>
    </contour>
    <component base="equal"/>
  </outline>
</glyph>
<glyph name="caron.alt" format="1">
  <advance width="1228"/>
  <outline>
    <contour>
      <point x="532" y="1312" type="line" smooth="yes"/>
      <point x="509" y="1312"/>
      <point x="498" y="1306"/>
      <point x="490" y="1285" type="curve" smooth="yes"/>
      <point x="343" y="923" type="line" smooth="yes"/>
      <point x="330" y="889"/>
      <point x="353" y="862"/>
      <point x="394" y="862" type="curve" smooth="yes"/>
      <point x="417" y="862"/>
      <point x="436" y="869"/>
      <point x="451" y="892" type="curve" smooth="yes"/>
      <point x="695" y="1256" type="line" smooth="yes"/>
      <point x="712" y="1284"/>
      <point x="700" y="1312"/>
      <point x="674" y="1312" type="curve" smooth="yes"/>
    </contour>
  </outline>
</glyph>
<glyph name="emdash.alt2" format="1">
  <advance width="2456"/>
  <outline>
    <contour>
      <point x="92" y="654" type="line" smooth="yes"/>
      <point x="47" y="654"/>
      <point x="25" y="634"/>
      <point x="16" y="582" type="curve" smooth="yes"/>
      <point x="7" y="530"/>
      <point x="21" y="510"/>
      <point x="66" y="510" type="curve" smooth="yes"/>
      <point x="2428" y="510" type="line" smooth="yes"/>
      <point x="2473" y="510"/>
      <point x="2495" y="530"/>
      <point x="2504" y="582" type="curve" smooth="yes"/>
      <point x="2513" y="634"/>
      <point x="2499" y="654"/>
      <point x="2454" y="654" type="curve" smooth="yes"/>
    </contour>
  </outline>
</glyph>
<glyph name="emdash.alt4" format="1">
  <advance width="1228"/>
  <outline>
    <contour>
      <point x="-121" y="654" type="line" smooth="yes"/>
      <point x="-166" y="654"/>
      <point x="-188" y="634"/>
      <point x="-197" y="582" type="curve" smooth="yes"/>
      <point x="-206" y="530"/>
      <point x="-192" y="510"/>
      <point x="-147" y="510" type="curve" smooth="yes"/>
      <point x="1414" y="510" type="line" smooth="yes"/>
      <point x="1459" y="510"/>
      <point x="1481" y="530"/>
      <point x="1490" y="582" type="curve" smooth="yes"/>
      <point x="1499" y="634"/>
      <point x="1485" y="654"/>
      <point x="1440" y="654" type="curve" smooth="yes"/>
    </contour>
  </outline>
</glyph>
